<svg width="93" height="63" viewBox="0 0 93 63" fill="none" xmlns="http://www.w3.org/2000/svg">
<path d="M47.2072 35.2088C47.1829 35.1844 47.1585 35.1844 47.1341 35.16H47.1098C47.0854 35.16 47.061 35.1356 47.0366 35.1356C47.0366 35.1356 47.0366 35.1356 47.0123 35.1356H39.4572V27.5716V15.8598V4.14795C39.4572 4.07475 39.4328 4.02595 39.384 3.97715L35.4846 0.0731991C35.4603 0.0487994 35.4359 0.0487994 35.4115 0.0243997H35.3871C35.3628 0.0243997 35.3384 0.0243997 35.314 0C35.314 0 35.314 0 35.2897 0H23.6402H11.9419C11.7957 0 11.6982 0.0975987 11.6982 0.243997V11.7119H0.243713C0.0974853 11.7119 0 11.8094 0 11.9558V23.6677V35.3795V47.0914C0 47.0914 0 47.0914 0 47.1158C0 47.1402 0 47.1646 0.0243713 47.189V47.2134C0.0243713 47.2378 0.0487426 47.2622 0.0731139 47.2866L3.97252 51.1905C4.02127 51.2393 4.07001 51.2637 4.14312 51.2637H15.8414H23.3965V58.8277C23.3965 58.8277 23.3965 58.8276 23.3965 58.852C23.3965 58.8764 23.3965 58.9008 23.4208 58.9252V58.9496C23.4208 58.974 23.4452 58.9984 23.4696 59.0228L27.369 62.9268C27.4177 62.9756 27.4665 63 27.5396 63H39.2378C39.2622 63 39.2866 63 39.3109 62.9756H39.3353C39.3353 62.9756 39.3597 62.9756 39.3597 62.9512L39.384 62.9268L39.4084 62.9024L39.4328 62.878V62.8536V62.8292V62.8048V51.3369H50.8873C50.9117 51.3369 50.9361 51.3369 50.9604 51.3125H50.9848C50.9848 51.3125 51.0092 51.3125 51.0092 51.2881L51.0335 51.2637L51.0579 51.2393L51.0823 51.2149V51.1905V51.1661V51.1418V39.4299C51.0823 39.3567 51.0579 39.3079 51.0092 39.2591L47.2072 35.2088ZM50.6923 50.4098L47.2804 46.9938V35.9651L50.6923 39.3811V50.4098ZM38.9941 62.1216L35.5821 58.7057V47.677L38.9941 51.0929V62.1216ZM38.9941 26.9861L35.5821 23.5701V12.5414L38.9941 15.9574V26.9861ZM16.0851 27.5716V16.1038H23.3965V23.6677V35.1356H16.0851V27.5716ZM23.3965 15.6158H15.9388L12.5269 12.1998H23.3965V15.6158ZM15.5976 35.1356H12.1857V24.2533L15.5976 27.6692V35.1356ZM15.5976 15.9574V26.9861L12.1857 23.5701V12.5414L15.5976 15.9574ZM35.5821 35.1356V24.2533L38.9941 27.6692V35.1356H35.5821ZM38.9941 15.2742L35.5821 11.8582V0.829589L38.9941 4.24555V15.2742ZM4.24061 50.7514L0.828625 47.3354H11.8445L15.2564 50.7514H4.24061ZM15.9388 50.7514L12.5269 47.3354H23.3965V50.7514H15.9388ZM27.6371 62.4632L24.2251 59.0472H35.2409L38.6529 62.4632H27.6371ZM39.3353 50.7514L35.9233 47.3354H46.9392L50.3511 50.7514H39.3353Z" fill="black"/>
<path d="M92.0505 3.97715L88.1511 0.0731991C88.1267 0.0487994 88.1023 0.0487994 88.0779 0.0243997H88.0536C88.0292 0.0243997 88.0048 0.0243997 87.9805 0C87.9805 0 87.9805 0 87.9561 0H76.2579H64.5596H52.8614C52.7152 0 52.6177 0.0975987 52.6177 0.243997V11.9558C52.6177 11.9558 52.6177 11.9558 52.6177 11.9802C52.6177 12.0046 52.6177 12.029 52.642 12.0534V12.0778C52.642 12.1022 52.6664 12.1266 52.6908 12.151L56.5902 16.055C56.6389 16.1038 56.6877 16.1282 56.7608 16.1282H68.459H76.0141V23.4481H64.5596C64.4134 23.4481 64.3159 23.5457 64.3159 23.6921V35.16H52.8614C52.7152 35.16 52.6177 35.2575 52.6177 35.4039V47.1158V58.8276C52.6177 58.8276 52.6177 58.8276 52.6177 58.852C52.6177 58.8764 52.6177 58.9008 52.642 58.9252V58.9496C52.642 58.974 52.6664 58.9984 52.6908 59.0228L56.5902 62.9268C56.6389 62.9756 56.6877 63 56.7608 63H68.459H80.1573H91.8555C91.8799 63 91.9043 63 91.9286 62.9756H91.953C91.953 62.9756 91.9774 62.9756 91.9774 62.9512L92.0017 62.9268L92.0261 62.9024L92.0505 62.878V62.8536V62.8292V62.8048V51.0929C92.0505 51.0197 92.0261 50.9709 91.9774 50.9221L88.0779 47.0182C88.0536 46.9938 88.0292 46.9938 88.0048 46.9694H87.9805C87.9561 46.9694 87.9317 46.945 87.9074 46.945C87.9074 46.945 87.9074 46.945 87.883 46.945H76.1847H68.6296V39.6251H80.0842C80.1085 39.6251 80.1329 39.6251 80.1573 39.6007H80.1816C80.1816 39.6007 80.206 39.6007 80.206 39.5763L80.2304 39.5519L80.2548 39.5275L80.2791 39.5031V39.4787V39.4543V39.4299V27.962H91.7337C91.758 27.962 91.7824 27.962 91.8068 27.9376H91.8311C91.8311 27.9376 91.8555 27.9376 91.8555 27.9132L91.8799 27.8888L91.9043 27.8644L91.9286 27.84V27.8156V27.7912V27.7668V15.8598V4.14795C92.1236 4.07475 92.0992 4.02595 92.0505 3.97715ZM79.9379 38.6979L76.5259 35.282V24.2533L79.9379 27.6692V38.6979ZM88.2242 12.5414L91.6362 15.9574V26.9861L88.2242 23.5701V12.5414ZM91.6362 15.2742L88.2242 11.8582V0.829589L91.6362 4.24555V15.2742ZM56.8827 15.6158L53.4707 12.1998H64.4865L67.8985 15.6158H56.8827ZM68.5809 15.6158L65.1689 12.1998H76.0385V15.6158H68.5809ZM56.8827 62.4632L53.4707 59.0472H64.4865L67.8985 62.4632H56.8827ZM68.7271 62.4632L65.1689 59.0472H76.1847L79.5967 62.4632H68.7271ZM80.2791 62.4632L76.8671 59.0472H87.883L91.295 62.4632H80.2791ZM91.6362 62.1216L88.2242 58.7057V47.677L91.6362 51.0929V62.1216ZM64.8277 46.8474V35.9651L68.2397 39.3811V46.8474H64.8277ZM68.5809 39.0395L65.1689 35.6235H76.1847L79.5967 39.0395H68.5809ZM80.2791 27.3277L76.8671 23.9117H87.883L91.295 27.3277H80.2791Z" fill="black"/>
</svg>
