<svg width="42" height="42" viewBox="0 0 42 42" fill="none" xmlns="http://www.w3.org/2000/svg">
<path d="M20.8794 42C32.4136 42 41.7589 32.6007 41.7589 21C41.7589 9.39925 32.4136 0 20.8794 0C9.34529 0 0 9.39925 0 21C0 32.6007 9.34529 42 20.8794 42ZM9.55408 20.545L29.6853 12.7383C30.6197 12.3988 31.4357 12.9675 31.133 14.3885L31.1347 14.3868L27.707 30.6285C27.453 31.78 26.7727 32.06 25.8209 31.5175L20.601 27.6483L18.0833 30.0878C17.8049 30.3678 17.57 30.604 17.0307 30.604L17.4013 25.2613L27.0754 16.471C27.4965 16.0982 26.9814 15.8883 26.4264 16.2593L14.4712 23.8298L9.31745 22.2127C8.19866 21.8557 8.1743 21.0875 9.55408 20.545Z" fill="black"/>
</svg>
