<svg width="356" height="626" viewBox="0 0 356 626" fill="none" xmlns="http://www.w3.org/2000/svg">
<path d="M165.925 66.0905C165.925 66.0905 185.178 31.2428 204.431 63.4583C223.685 95.6739 216.673 98.306 228.053 103.57C239.432 108.778 242.076 105.287 248.168 114.9C254.261 124.513 256.904 129.72 256.042 145.399C255.18 161.078 247.306 166.342 249.03 172.407C250.755 178.53 286.675 237.811 279.664 253.49C272.652 269.169 268.284 270.027 274.434 281.357C280.583 292.686 286.675 308.365 274.434 311.856C262.192 315.346 252.536 304.016 238.513 307.507C224.489 310.997 213.11 325.818 209.604 313.629C206.098 301.441 205.236 296.177 196.443 297.093C187.707 297.951 163.166 290.112 163.166 280.556C163.166 270.942 165.81 262.245 162.304 258.754C158.798 255.264 169.315 157.644 169.315 157.644C169.315 157.644 124.659 151.522 129.889 129.778C135.119 108.034 128.165 104.486 126.383 95.7883C124.601 87.0907 124.659 71.3548 139.544 72.2704C139.659 72.2132 148.395 53.9024 165.925 66.0905Z" fill="black"/>
<path d="M180.352 151.064L228.514 212.977L187.133 248.111C187.133 248.111 187.018 248.168 186.961 248.283L188.743 250.057L177.363 259.67L190.524 252.689L192.248 256.179L180.007 263.16L194.03 262.302L190.524 267.509L172.133 269.226L166.903 259.613L169.547 251.773L213.341 214.293L170.868 177.271" fill="white"/>
<path d="M180.812 184.653L179.491 199.874L169.893 178.072L172.766 174.353L180.812 184.653Z" fill="white"/>
<path d="M175.581 159.361C175.581 159.361 130.925 153.238 136.155 131.494C141.385 109.75 134.43 106.203 132.649 97.5049C130.925 88.8073 130.925 73.0715 145.81 73.987C145.81 73.987 154.546 55.6762 172.075 67.8644C172.075 67.8644 191.329 33.0166 210.582 65.2322C229.836 97.4477 222.824 100.08 234.204 105.344C245.583 110.551 248.227 107.061 254.319 116.674C260.411 126.287 263.055 131.494 262.193 147.173C261.331 162.852 253.457 168.116 255.181 174.181C256.905 180.304 292.826 239.585 285.814 255.264C278.803 270.942 274.435 271.801 280.584 283.131C286.734 294.46 292.826 310.139 280.584 313.629C268.343 317.12 258.687 305.79 244.664 309.281C230.64 312.771 219.261 327.591 215.755 315.403C212.249 303.215 211.387 297.951 202.593 298.866C193.8 299.782 169.317 291.885 169.317 282.329C169.317 272.774 171.96 264.019 168.454 260.528C166.27 258.354 169.604 218.986 172.363 190.032" stroke="black" stroke-miterlimit="10"/>
<path d="M175.122 258.297L187.134 248.111L228.515 212.977L180.812 152.38" stroke="black" stroke-miterlimit="10"/>
<path d="M177.305 259.613L188.685 249.999L186.961 248.283" stroke="black" stroke-miterlimit="10"/>
<path d="M126.098 156.328L115.063 157.931L79.2573 221.274L120.58 253.833" stroke="black" stroke-miterlimit="10"/>
<path d="M117.534 188.83L97.5332 218.871L120.063 248.397L125.58 251.602L123.511 267.91L105.579 266.25V262.188H117.304L103.51 258.125L104.2 254.062L117.994 258.926L105.579 249.999L106.154 247.882" stroke="black" stroke-miterlimit="10"/>
<path d="M127.131 247.539L130.925 478.426L157.19 477.511L151.04 301.441L201.846 481.86L229.836 476.653L173.799 285.763L176.443 272.659L165.926 251.773L127.131 247.539Z" fill="black"/>
<path d="M129.776 247.539L133.512 478.427L159.777 477.511L153.685 301.441L204.434 481.86L232.481 476.653L176.444 285.763L179.088 272.659L168.571 251.773L129.776 247.539Z" stroke="black" stroke-miterlimit="10"/>
<path d="M134.432 481.86L136.156 525.462L144.03 523.746L148.398 494.963L151.903 513.274L158.915 512.416L152.823 481.86H134.432Z" fill="#FF0000"/>
<path d="M204.434 486.266L208.86 529.811L219.32 526.321L222.825 500.171L227.193 518.481L232.481 516.765L228.975 483.634L204.434 486.266Z" fill="#FF0000"/>
<path d="M135.294 481.86L137.018 525.462L144.892 523.746L149.317 494.963L152.823 513.274L159.777 512.416L153.685 481.86H135.294Z" fill="#FF0000"/>
<path d="M205.354 486.266L209.722 529.811L220.24 526.321L223.688 500.171L228.113 518.481L233.343 516.765L229.838 483.634L205.354 486.266Z" fill="#FF0000"/>
<path d="M137.017 484.492L138.798 528.095L146.672 526.321L151.04 497.596L154.546 515.906L161.558 514.991L155.408 484.492H137.017Z" stroke="black" stroke-miterlimit="10"/>
<path d="M207.08 488.841L211.448 532.443L221.965 528.953L225.471 502.803L229.839 521.114L235.126 519.34L231.621 486.266L207.08 488.841Z" stroke="black" stroke-miterlimit="10"/>
<path d="M148.168 136.701L146.387 153.696L154.088 158.903L165.468 151.064L162.077 131.437L148.168 136.701Z" fill="white"/>
<path d="M160.64 81.0252C160.64 81.0252 142.076 76.1042 139.317 104.772C136.559 133.44 142.823 138.59 148.226 138.361C148.973 138.304 167.709 141.05 176.387 115.472C180.813 102.197 177.479 81.3113 160.64 81.0252Z" fill="white" stroke="black" stroke-miterlimit="10"/>
<path d="M149.719 104.028L145.696 112.039L150.409 113.412" stroke="black" stroke-miterlimit="10"/>
<path d="M144.395 101.678C144.547 100.01 143.928 98.5905 143.011 98.5075C142.094 98.4244 141.228 99.7094 141.075 101.377C140.923 103.045 141.542 104.465 142.459 104.548C143.376 104.631 144.243 103.346 144.395 101.678Z" fill="white" stroke="black" stroke-miterlimit="10"/>
<path d="M161.736 104.58C161.889 102.912 161.269 101.493 160.352 101.41C159.436 101.327 158.569 102.612 158.417 104.28C158.264 105.948 158.884 107.367 159.801 107.45C160.717 107.533 161.584 106.248 161.736 104.58Z" stroke="black" stroke-miterlimit="10"/>
<path d="M157.19 94.6439L166.559 93.9" stroke="black" stroke-miterlimit="10"/>
<path d="M140.351 90.3523L148.339 93.4994" stroke="black" stroke-miterlimit="10"/>
<path d="M148.168 140.02L146.214 153.696" stroke="black" stroke-miterlimit="10"/>
<path d="M163.167 139.448L164.719 150.892" stroke="black" stroke-miterlimit="10"/>
<path d="M143.168 119.249C143.168 119.249 144.893 127.088 160.698 120.966" stroke="black" stroke-miterlimit="10"/>
<path d="M159.775 118.391C159.775 118.391 160.637 121.023 161.5 122.739" stroke="black" stroke-miterlimit="10"/>
<path d="M157.19 75.6464C157.19 75.6464 160.696 94.8155 189.605 100.08C218.514 105.287 186.099 80.9108 186.099 80.9108L157.19 75.6464Z" fill="black"/>
<path d="M160.926 76.6764C160.926 76.6764 160.237 90.0662 140.926 88.3495C121.615 86.6329 160.926 76.6764 160.926 76.6764Z" fill="black"/>
<path d="M117.132 133.611C118.224 133.611 118.224 131.895 117.132 131.895C116.04 131.895 115.983 133.611 117.132 133.611Z" fill="white"/>
<path d="M175.58 181.162L213.225 214.293L169.431 251.773L166.787 259.613L172.075 269.169L190.466 267.452L193.972 262.245L179.948 263.103L192.19 256.122L190.466 252.632L177.305 259.613" stroke="black" stroke-miterlimit="10"/>
<path d="M134.43 152.38L116.039 186.369L124.775 200.331L121.269 241.302L126.557 244.792L168.569 248.283L180.811 201.19L170.294 176.813L179.949 149.748L185.179 151.522L186.961 155.871L186.501 148.432L170.294 150.663L144.028 168.059L143.166 151.522L134.43 152.38Z" fill="#FF0000"/>
<path d="M131.79 152.38L113.398 186.369L122.134 200.331L118.628 241.302L123.916 244.792L165.929 248.283L178.171 201.19L167.71 176.814L177.308 149.748L182.596 151.522L184.32 155.871L186.044 148.031L167.71 150.663L141.445 168.059L140.526 151.522L131.79 152.38Z" stroke="black" stroke-miterlimit="10"/>
</svg>
