<svg width="130" height="51" viewBox="0 0 130 51" fill="none" xmlns="http://www.w3.org/2000/svg">
<path d="M12.8507 27.7935L5.42052 44.7662H0L8.16106 26.6162C4.32417 24.634 1.76625 21.0412 1.76625 14.4132C1.76625 5.12146 7.55207 0.475586 14.4342 0.475586H21.438V44.7662H16.7485V27.7935H12.8507ZM16.7485 4.50202H14.2514C10.4754 4.50202 6.82117 7.04171 6.82117 14.4132C6.82117 21.5367 10.1709 23.8286 14.2514 23.8286H16.7485V4.50202Z" fill="#FF0000"/>
<path d="M44.0331 13.5458V44.7662H39.3435V30.7666H32.2787V44.7662H27.5283V13.5458H32.2787V26.802H39.3435V13.5458H44.0331ZM68.4555 50.8988H64.1922V44.7662H51.037V50.8988H46.7737V40.8017H48.6618C51.4633 34.1736 51.7678 24.51 51.7678 16.2094V13.5458H66.0194V40.8017H68.4555V50.8988ZM61.3298 17.4485H56.0311V18.0059C56.0311 24.572 55.7266 34.1736 53.1687 40.8017H61.3298V17.4485ZM81.5498 45.1996C75.2159 45.1996 71.3181 40.0583 71.3181 30.4571C71.3181 20.4218 74.0588 13.1123 80.5755 13.1123C85.6914 13.1123 89.0411 17.0148 89.0411 27.6075V30.2711H76.2511C76.2511 37.3327 78.2 41.0496 81.976 41.0496C84.6558 41.0496 86.7875 39.8108 88.0055 38.9434L89.1021 42.66C86.9384 44.3489 84.2768 45.2439 81.5498 45.1996ZM76.3121 26.3065H84.1687C84.1687 20.9792 83.3159 17.0768 80.5755 17.0768C77.6519 17.0768 76.6167 20.7315 76.3121 26.3065ZM98.6638 29.2182V44.7662H93.9132V13.5458H98.6638V27.979L106.033 13.5458H110.844L103.232 28.2269L111.941 44.7662H106.764L98.6638 29.2182ZM112.55 29.1563C112.55 19.3687 116.265 13.1123 123.452 13.1123C126.192 13.1123 127.776 13.8557 129.116 14.7228L128.446 19.3067C127.167 18.1916 125.34 17.1387 123.391 17.1387C119.98 17.1387 117.544 21.0412 117.544 28.9083C117.544 36.7133 119.371 41.1732 123.208 41.1732C125.106 41.1991 126.948 40.5159 128.385 39.2529L129.481 42.8459C127.718 44.4242 125.433 45.2651 123.086 45.1996C116.508 45.1996 112.55 39.8108 112.55 29.1563Z" fill="black"/>
</svg>
