<svg width="183" height="64" viewBox="0 0 183 64" fill="none" xmlns="http://www.w3.org/2000/svg">
<path d="M20.6588 1.52588e-05C25.0377 1.52588e-05 26.4136 3.12391 27.568 6.24291C28.0529 7.56738 39.4321 38.5615 39.7743 39.4919C39.8653 39.7514 39.8038 40.1773 39.4026 40.3316C38.9989 40.4834 33.0865 42.77 32.7592 42.8924C32.4318 43.0173 32.0651 42.8361 31.9469 42.5105C31.8238 42.1898 29.3698 35.4327 29.0941 34.6787H12.2284C11.9626 35.4327 9.47897 42.2045 9.3682 42.5105C9.25498 42.8214 8.90299 43.0319 8.55347 42.8924C8.20395 42.7553 2.26944 40.4687 1.91499 40.3316C1.57532 40.1994 1.42024 39.815 1.53839 39.4919C1.95684 38.3314 13.1637 7.83424 13.7348 6.24291C14.8473 3.17042 16.2701 1.52588e-05 20.6588 1.52588e-05ZM0.63751 55.459C0.283064 55.459 0 55.7528 0 56.1102V63.3544C0 63.7118 0.283064 64.0007 0.63751 64.0007H40.6628C41.0247 64.0007 41.3077 63.7118 41.3077 63.3544V56.1102C41.3077 55.7528 41.0247 55.459 40.6628 55.459H0.63751ZM20.6194 10.1209L14.9187 27.148H26.4136L20.6932 10.1209H20.6194ZM106.161 38.0401C105.322 38.3216 104.768 38.3902 104.109 38.3902C102.745 38.3902 101.989 37.854 101.989 36.4634C101.989 35.0141 102.949 34.5294 104.835 34.5294C105.295 34.5294 105.748 34.5955 105.96 34.6689V35.7069C105.96 36.8258 106.021 37.5602 106.161 38.0401ZM111.008 39.6999C110.001 38.1796 109.738 37.2836 109.738 35.3666V31.474C109.738 29.3784 109.492 28.6219 108.936 27.858C108.16 26.7759 106.868 26.3059 104.493 26.3059C102.811 26.3059 101.18 26.487 99.5993 26.8885L100.17 29.655C101.239 29.5057 102.359 29.3784 103.149 29.3784C105.672 29.3784 105.96 29.7407 105.96 31.6233V32.326C105.398 32.1766 104.768 32.0689 104.037 32.0689C100.239 32.0689 98.2332 33.9173 98.2332 36.9776C98.2332 39.8468 100.377 41.4112 102.989 41.4112C103.963 41.4112 104.982 41.2325 105.79 40.9045C106.277 40.6939 106.489 40.5691 107.119 40.1627C107.498 40.7111 108.259 41.2717 108.569 41.377L111.008 39.6999ZM148.577 38.0401C147.733 38.3216 147.189 38.3902 146.524 38.3902C145.155 38.3902 144.39 37.854 144.39 36.4634C144.39 35.0141 145.362 34.5294 147.253 34.5294C147.713 34.5294 148.168 34.5955 148.375 34.6689V35.7069C148.375 36.8258 148.434 37.5602 148.577 38.0401ZM153.428 39.6999C152.414 38.1796 152.156 37.2836 152.156 35.3666V31.474C152.156 29.3784 151.905 28.6219 151.344 27.858C150.578 26.7759 149.283 26.3059 146.901 26.3059C145.222 26.3059 143.58 26.487 142 26.8885L142.564 29.655C143.634 29.5057 144.757 29.3784 145.569 29.3784C148.077 29.3784 148.375 29.7407 148.375 31.6233V32.326C147.814 32.1766 147.189 32.0689 146.443 32.0689C142.64 32.0689 140.626 33.9173 140.626 36.9776C140.626 39.8468 142.775 41.4112 145.399 41.4112C146.386 41.4112 147.395 41.2325 148.195 40.9045C148.69 40.6939 148.894 40.5691 149.525 40.1627C149.909 40.7111 150.669 41.2717 150.982 41.377L153.428 39.6999ZM183 41.0856C183 41.0856 180.918 36.6715 180.408 35.6678C179.835 34.5367 179.303 33.7557 178.131 33.4742V33.4105C178.916 33.2612 179.542 32.7887 180.226 31.3443C180.873 29.9365 181.065 29.633 181.447 29.2976C181.821 28.9646 182.333 29.0846 182.333 29.0846L182.525 26.4821C181.981 26.4087 181.378 26.4062 180.755 26.4405C179.721 26.5017 179.187 26.798 178.678 27.3072C178.279 27.6964 178.008 28.2791 177.673 28.9475C177.319 29.677 177.038 30.2646 176.669 31.0064C176.302 31.7678 176.13 32.1105 175.143 32.1105H174.501V20.582H170.698V41.0856H174.501V35.1904L175.02 35.1806C176.11 35.1806 176.302 35.4523 176.878 36.5956C177.553 37.9593 178.845 41.0856 178.845 41.0856H183ZM75.8687 41.0856H80.2574L73.6189 20.9247C72.9199 20.6922 72.0559 20.5477 71.1329 20.5477C70.1262 20.5477 69.7668 20.6799 68.9791 20.9247L61.9542 41.0856H66.1657C66.1657 41.0856 66.7343 39.318 67.4038 37.1269H74.6798C75.3296 39.3156 75.8687 41.0856 75.8687 41.0856ZM68.4721 33.7459C68.4721 33.7459 69.688 29.6991 69.8775 29.0699C70.36 27.4394 71.0935 24.8492 71.0935 24.8492H71.2141C71.2141 24.8492 71.8935 27.5324 72.3365 29.0405C72.5039 29.6403 73.6657 33.7459 73.6657 33.7459H68.4721ZM117.487 31.4397C116.145 31.4397 115.055 32.5292 115.055 33.8634C115.055 35.2075 116.145 36.2896 117.487 36.2896C118.83 36.2896 119.916 35.2075 119.916 33.8634C119.916 32.5292 118.83 31.4397 117.487 31.4397ZM85.4683 20.582H81.6555V41.0832H85.4683V20.582ZM161.219 29.5644C163.326 29.6085 163.587 30.0418 163.587 31.7996V41.0856H167.365V31.474C167.365 29.3784 167.119 28.6219 166.558 27.858C165.782 26.7759 164.259 26.3059 161.682 26.3059C159.131 26.3059 157.507 26.5752 155.417 27.1946V41.0856H159.235V29.7407C160.237 29.5962 160.414 29.5644 161.219 29.5644ZM94.898 20.2172C92.5153 20.2172 91.2182 20.6873 90.4551 21.7669C89.8939 22.5332 89.6453 23.3068 89.6453 25.4074V27.1946H87.7525V30.2597H89.6453V41.0856H93.4261L93.4162 30.2597H97.1847V27.1946H93.4162L93.4261 25.5518C93.4261 23.6716 93.714 23.3068 96.2395 23.3068C96.5127 23.3068 96.8204 23.3215 97.1477 23.346L97.7434 20.4008C96.8105 20.2784 95.8555 20.2172 94.898 20.2172ZM125.233 20.4082C126.53 20.3323 129.429 20.2246 131.248 20.2246C131.581 20.2246 131.925 20.227 132.27 20.2441C135.846 20.2441 137.897 22.8343 137.897 25.875C137.897 27.9437 136.944 29.3172 134.712 30.1348C137.338 30.7126 138.714 32.752 138.714 35.2467C138.714 37.0779 138.195 38.5322 137.242 39.5237C136.006 40.7331 134.136 41.4112 131.645 41.4112C129.429 41.4112 126.648 41.3427 125.233 41.2594V20.4082ZM131.248 23.7671C130.618 23.7671 129.838 23.7793 129.065 23.8063V28.7296H131.251C132.117 28.7296 132.814 28.4897 133.289 28.027C133.742 27.5912 133.978 26.9742 133.978 26.2422C133.978 24.668 133.122 23.7769 131.529 23.7671H131.248ZM131.327 37.876H131.492C133.478 37.876 134.694 36.8258 134.709 34.7105C134.689 33.9516 134.397 33.2514 133.872 32.7446C133.299 32.1717 132.486 31.8731 131.534 31.8731H129.065V37.854C129.762 37.8687 130.53 37.8711 131.327 37.876Z" fill="#FF0000"/>
</svg>
