<svg width="686" height="654" viewBox="0 0 686 654" fill="none" xmlns="http://www.w3.org/2000/svg">
<path d="M146.446 457.746L151.75 428.279L157.054 421.207L156.465 412.956L146.446 386.435L142.91 384.078L168.252 364.629L170.02 364.04L168.252 372.291L195.362 372.88L204.202 364.629L197.719 361.093L202.434 358.146L208.917 361.682L220.115 381.131L211.864 416.492L200.666 443.013L195.598 450.262" fill="#FF0000"/>
<path d="M393.386 323.963L407.53 323.374L408.119 370.522L402.815 368.165L399.869 340.465L393.386 350.484H388.082L393.386 323.963Z" fill="#FF0000"/>
<path d="M545.429 189.592L544.25 200.201H550.144L553.68 197.843L582.558 200.201L583.737 192.539L561.931 187.824L545.429 189.592Z" fill="#FF0000"/>
<path d="M494.158 87.0447C494.158 82.3299 498.873 77.0258 510.66 71.1323C522.447 65.2388 517.732 52.2731 514.786 45.7902C511.839 39.3074 522.447 32.8245 521.268 25.163C520.09 17.5014 500.641 31.0565 500.641 31.0565C500.641 31.0565 501.82 -0.179064 452.904 26.3417C452.904 26.3417 443.474 28.1097 455.261 48.1476C467.048 68.1855 432.277 56.9879 431.098 81.1512C431.098 81.1512 436.991 87.0447 426.383 86.4554C415.775 85.866 388.665 91.1702 376.288 112.976C363.971 134.605 283.701 105.727 309.751 145.155C309.986 145.567 310.281 145.98 310.517 146.333C311.755 148.396 319.593 157.885 353.952 148.926C353.952 148.926 361.024 144.212 360.435 156.588C359.845 168.964 365.15 176.626 379.294 171.322C393.438 166.018 403.457 173.09 406.404 178.983C416.305 198.785 435.872 178.394 434.693 168.964C433.514 159.535 445.478 146.982 445.478 146.982" fill="black"/>
<path d="M468.522 84.3931L473.119 82.3894L477.363 70.8381L493.865 66.7126L486.616 81.7411L490.918 83.8038L483.256 95.5908L470.88 93.8227L468.522 84.3931Z" fill="white"/>
<path d="M475.892 40.4867C475.892 40.4867 468.82 70.5435 477.071 75.2584C485.322 79.9731 506.539 58.1672 500.645 42.2548C500.645 42.2548 494.752 25.1636 479.428 34.5932L475.892 40.4867Z" fill="white" stroke="black" stroke-miterlimit="10"/>
<path d="M488.858 82.9194C465.874 106.493 469.41 82.3301 469.41 82.3301L449.843 90.9346L447.309 92.0544L448.901 112.623L439.353 173.679L490.332 145.273C490.332 145.273 490.744 145.037 491.216 144.801L494.752 142.444L495.931 135.961L505.36 130.657L513.611 109.44L517.147 87.0449" fill="#FF0000"/>
<path d="M680.395 91.1702H629.711V147.158H586.099V200.2H538.362V236.74H490.035V305.694H452.906V372.879H396.918V417.081H351.538V490.749H283.173V536.719H221.291V569.133H152.927V595.064H65.703V631.604H0.285156" stroke="black" stroke-miterlimit="10"/>
<path d="M5.58789 637.498H71.0057V600.958H158.23V575.027H226.594V542.613H288.476V496.644H356.841V422.975H402.22V378.774H458.209V311.588H495.338V242.634H543.664V206.094H591.402V153.052H635.014V97.0642H685.698L658.588 189.003L615.565 211.987L613.797 258.546L578.436 253.831L528.341 279.173L525.395 335.751H470.585L477.068 387.024L426.973 409.42L424.026 440.066L377.468 451.264V506.073L304.978 520.807L308.514 568.544L261.366 565.598L247.221 598.012L185.929 596.244L176.499 620.407H86.3288L83.3821 654L6.17724 649.285L5.58789 637.498Z" fill="black"/>
<path d="M438.761 172.501L490.624 143.623L482.963 160.125L573.133 127.71L562.525 183.699L542.487 186.645L546.023 155.999L462.335 189.003L407.526 316.302L388.667 321.607L429.921 183.699L435.815 177.805L438.761 172.501Z" fill="black"/>
<path d="M441.706 174.269L493.568 145.391L485.907 161.893L576.077 129.478L565.469 185.467L545.431 188.413L548.967 157.767L465.28 190.771L410.47 318.07L391.611 323.374L432.865 185.467L438.759 179.573L441.706 174.269Z" stroke="black" stroke-miterlimit="10"/>
<path d="M438.754 172.501L447.005 93.5282L449.952 90.5815L468.811 81.1519C468.811 81.1519 465.275 105.315 488.26 81.7412" stroke="black" stroke-miterlimit="10"/>
<path d="M486.497 144.212L490.033 141.855L491.212 135.372L500.641 130.068L508.892 108.851L512.428 86.4558" stroke="black" stroke-miterlimit="10"/>
<path d="M508.892 77.0262L592.579 31.6462L597.883 16.9125L606.134 1L609.081 2.1787L604.366 16.9125H609.67L627.94 3.3574L630.298 5.12545L614.385 18.0912L635.012 9.84025L636.781 12.787L617.332 22.2166H636.191L635.012 25.7527L612.617 28.6995L595.526 41.0758L517.143 93.528" stroke="black" stroke-miterlimit="10"/>
<path d="M391.022 325.143L405.167 324.553L405.756 371.701L400.452 369.344L397.505 341.645L391.022 351.664H385.718L391.022 325.143Z" stroke="black" stroke-miterlimit="10"/>
<path d="M544.254 187.824L543.076 198.432H548.969L552.505 196.075L581.383 198.432L582.562 190.77L560.756 186.056L544.254 187.824Z" stroke="black" stroke-miterlimit="10"/>
<path d="M449.366 118.87L349.177 209.63L346.23 237.329L342.105 239.687V223.774L335.622 225.542L322.067 244.991L318.531 243.812L331.496 222.595L314.995 239.687L313.816 237.919L329.139 219.059L313.816 229.668L312.637 226.721L342.105 204.915L452.313 94.1172L455.849 104.725V111.798L449.366 118.87Z" fill="white" stroke="black" stroke-miterlimit="10"/>
<path d="M473.533 35.7717L479.426 40.4865" stroke="black" stroke-miterlimit="10"/>
<path d="M473.533 35.7717L477.187 38.6595" stroke="white" stroke-miterlimit="10"/>
<path d="M488.271 42.2546L495.343 38.1292" stroke="black" stroke-miterlimit="10"/>
<path d="M490.329 51.0949C491.143 51.0949 491.802 49.9075 491.802 48.4428C491.802 46.9781 491.143 45.7908 490.329 45.7908C489.515 45.7908 488.855 46.9781 488.855 48.4428C488.855 49.9075 489.515 51.0949 490.329 51.0949Z" stroke="black" stroke-miterlimit="10"/>
<path d="M475.006 49.916C475.82 49.916 476.479 48.7286 476.479 47.2639C476.479 45.7992 475.82 44.6118 475.006 44.6118C474.192 44.6118 473.533 45.7992 473.533 47.2639C473.533 48.7286 474.192 49.916 475.006 49.916Z" fill="white" stroke="black" stroke-miterlimit="10"/>
<path d="M481.192 48.7371L477.656 55.8093L481.782 56.988" stroke="black" stroke-miterlimit="10"/>
<path d="M484.144 70.5433C496.52 70.5433 494.163 56.3989 494.163 56.3989L478.25 67.0072C478.25 67.0072 480.608 70.5433 484.144 70.5433Z" stroke="black" stroke-miterlimit="10"/>
<path d="M149.98 457.746L193.002 454.21L283.173 404.115L289.066 423.564L256.063 500.179L231.31 502.537L251.937 447.138L188.288 483.088L99.2957 577.974L77.4897 579.742L137.603 494.875L134.067 480.142" fill="black"/>
<path d="M195.361 458.336L285.532 408.241L291.425 427.69L258.422 504.305L233.669 506.662L254.296 451.264L190.646 487.214L101.655 582.099L79.8486 583.867L139.962 499.001L136.426 484.267L139.373 474.248L152.339 461.872L195.361 458.336Z" stroke="black" stroke-miterlimit="10"/>
<path d="M252.527 503.126L234.257 506.073L224.827 526.7L234.846 529.058L237.793 526.111L249.58 534.951L277.279 534.362L277.869 527.29L259.599 523.164L252.527 503.126Z" fill="#FF0000"/>
<path d="M79.2607 581.51L74.5459 593.297H93.9944L96.9412 589.171L104.603 592.708L135.838 593.297V583.867L102.245 579.152L78.082 581.51" fill="#FF0000"/>
<path d="M252.527 503.716L234.257 506.663L224.827 527.29L234.846 529.647L237.793 526.7L249.58 535.541L277.279 534.951L277.869 527.879L259.599 523.754L252.527 503.716Z" fill="#FF0000"/>
<path d="M79.2607 582.099L74.5459 593.886H93.9944L96.9412 589.761L104.603 593.297L135.838 593.886V584.456L102.245 579.742L78.082 582.099" fill="#FF0000"/>
<path d="M252.527 504.305L234.257 507.252L224.827 527.879L234.846 530.237L237.793 527.29L249.58 536.13L277.279 535.541L277.869 528.469L259.599 524.343L252.527 504.305Z" fill="#FF0000"/>
<path d="M79.2607 582.689L74.5459 594.476H93.9944L96.9412 590.35L104.603 593.886L135.838 594.476V585.046L102.245 580.331L78.082 582.689" fill="#FF0000"/>
<path d="M252.527 504.894L234.257 507.841L224.827 528.468L234.846 530.825L237.793 527.879L249.58 536.719L277.279 536.13L277.869 529.057L259.599 524.932L252.527 504.894Z" fill="#FF0000"/>
<path d="M79.2607 583.278L74.5459 595.065H93.9944L96.9412 590.939L104.603 594.475L135.838 595.065V585.635L102.245 580.92L78.082 583.278" fill="#FF0000"/>
<path d="M252.527 508.431L234.257 511.377L224.827 532.005L234.846 534.362L237.793 531.415L249.58 540.255L277.279 539.666L277.869 532.594L259.599 528.468L252.527 508.431Z" stroke="black" stroke-miterlimit="10"/>
<path d="M79.2607 585.635L74.5459 597.422H93.9944L96.9412 593.296L104.603 596.833L135.838 597.422V587.992L102.245 583.277L78.082 585.635" stroke="black" stroke-miterlimit="10"/>
<path d="M158.232 417.671L100.476 486.035L99.297 500.18L90.4568 515.503L86.9207 514.913L92.2248 503.126L74.5443 513.735L72.7763 510.788L86.3313 501.358L64.5254 506.662L65.1147 502.537L82.2059 497.233L66.8828 496.054L68.6508 493.107L84.5633 492.518L92.8142 481.91L118.156 430.636V427.1L122.871 422.975L146.445 384.078L171.787 364.629" stroke="black" stroke-miterlimit="10"/>
<path d="M199.132 450.262L204.2 443.013L215.398 416.492L223.649 381.131L212.451 361.682L205.968 358.146" stroke="black" stroke-miterlimit="10"/>
<path d="M149.977 386.435L159.996 412.956L160.585 421.206L155.281 428.279L149.977 457.746" stroke="black" stroke-miterlimit="10"/>
<path d="M209.504 356.967L267.85 297.443L286.119 265.618H289.066L278.458 285.656L293.192 265.618L295.549 268.565L281.405 287.424L297.317 276.816L298.496 280.941L282.583 292.139L294.96 297.443L293.192 300.39L281.405 297.443L271.386 309.23L225.416 371.701" stroke="black" stroke-miterlimit="10"/>
<path d="M199.49 343.412L201.848 342.823L211.277 333.393L211.867 329.268L208.331 328.678C208.331 328.678 212.456 324.553 212.456 322.785C212.456 321.017 203.616 312.766 197.722 310.998C191.829 309.23 178.274 323.374 178.274 323.374L174.148 344.002L173.559 364.039L171.791 372.29L198.901 372.88" stroke="black" stroke-miterlimit="10"/>
<path d="M208.737 335.339L211.86 336.341L210.682 340.466V345.77L200.073 352.253L199.484 361.093L206.556 366.397" stroke="black" stroke-miterlimit="10"/>
<path d="M205.08 323.964C205.894 323.964 206.554 322.776 206.554 321.311C206.554 319.847 205.894 318.659 205.08 318.659C204.267 318.659 203.607 319.847 203.607 321.311C203.607 322.776 204.267 323.964 205.08 323.964Z" stroke="black" stroke-miterlimit="10"/>
<path d="M196.239 331.625C197.053 331.625 197.713 330.438 197.713 328.973C197.713 327.509 197.053 326.321 196.239 326.321C195.426 326.321 194.766 327.509 194.766 328.973C194.766 330.438 195.426 331.625 196.239 331.625Z" stroke="black" stroke-miterlimit="10"/>
<path d="M171.786 335.751C171.786 335.751 159.41 323.964 167.66 319.839C175.911 315.713 177.09 318.07 178.269 310.998C179.447 303.926 182.394 299.211 186.52 300.39C190.645 301.569 193.592 299.801 196.539 301.569C199.485 303.337 201.253 302.747 204.2 302.747C207.147 302.747 207.736 301.569 208.915 303.926C210.094 306.283 210.094 308.641 209.504 309.82C208.915 310.998 199.485 315.713 197.128 316.892C194.771 318.07 195.36 316.892 191.824 318.07C188.288 319.249 187.698 317.481 187.698 321.017C187.698 324.553 189.466 323.964 186.52 325.143C183.573 326.321 184.752 324.553 182.394 326.911C180.037 329.268 178.858 329.857 179.447 332.804C180.037 335.751 184.162 335.162 180.037 338.698C175.911 342.234 172.965 341.644 171.786 341.644C170.607 341.644 167.66 341.644 170.018 339.287C172.375 336.93 171.786 335.751 171.786 335.751Z" fill="black"/>
<path d="M167.068 335.751C167.068 335.751 154.692 323.964 162.943 319.839C171.194 315.713 172.372 318.07 173.551 310.998C174.73 303.926 177.676 299.211 181.802 300.39C185.927 301.569 188.874 299.801 191.821 301.569C194.768 303.337 196.536 302.747 199.482 302.747C202.429 302.747 203.018 301.569 204.197 303.926C205.376 306.283 205.376 308.641 204.787 309.82C204.197 310.998 194.768 315.713 192.41 316.892C190.053 318.07 190.642 316.892 187.106 318.07C183.57 319.249 182.981 317.481 182.981 321.017C182.981 324.553 184.749 323.964 181.802 325.143C178.855 326.321 180.034 324.553 177.676 326.911C175.319 329.268 174.14 329.857 174.73 332.804C175.319 335.751 179.444 335.162 175.319 338.698C171.194 342.234 168.247 341.644 167.068 341.644C165.889 341.644 162.943 341.644 165.3 339.287C167.657 336.93 167.068 335.751 167.068 335.751Z" stroke="black" stroke-miterlimit="10"/>
<path d="M490.326 73.1953L487.379 79.0888" stroke="black" stroke-miterlimit="10"/>
<path d="M475.301 77.0264L473.533 81.7412" stroke="black" stroke-miterlimit="10"/>
<path d="M517.144 87.0448L510.367 77.9099L498.815 79.678L488.855 82.9194" fill="#FF0000"/>
<path d="M392.264 170.32C397.863 171.971 401.753 175.684 403.403 178.984C413.304 198.786 432.87 178.395 431.692 168.965C430.513 159.535 442.477 146.982 442.477 146.982" stroke="black" stroke-miterlimit="10"/>
<path d="M491.215 87.0447C491.215 82.3299 495.929 77.0258 507.716 71.1323C519.503 65.2388 514.789 52.2731 511.842 45.7902C508.895 39.3074 519.503 32.8245 518.325 25.163C517.146 17.5014 497.697 31.0565 497.697 31.0565C497.697 31.0565 498.876 -0.179064 449.96 26.3417C449.96 26.3417 440.53 28.1097 452.317 48.1476C464.104 68.1855 429.333 56.9879 428.154 81.1512C428.154 81.1512 434.048 87.0447 423.439 86.4554C412.831 85.866 385.721 91.1702 373.345 112.976C361.027 134.605 280.758 105.727 306.807 145.155C307.043 145.567 307.337 145.98 307.573 146.333C308.811 148.396 316.649 157.885 351.008 148.926C351.008 148.926 358.08 144.212 357.491 156.588C356.902 168.552 361.852 176.096 374.877 171.852" stroke="black" stroke-miterlimit="10"/>
</svg>
