<svg width="58" height="54" viewBox="0 0 58 54" fill="none" xmlns="http://www.w3.org/2000/svg">
<path d="M2.42862 53.6293H0.35V2.94622V0.370752H2.91434H15.2194H17.7837V2.94622V14.4115V15.2587L18.3817 14.6585L31.8641 1.12462L32.6151 0.370752H33.6769H50.8391H57.0322L52.6519 4.76782L9.70224 47.8814L9.10749 48.4784H9.9502H19.1932H19.3386L19.4412 48.3754L36.5594 31.1919L38.94 28.8022L40.6021 31.7417L50.8023 49.7821L52.9775 53.6293H48.5724H35.6198H34.1834L33.4331 52.3992L29.5847 46.0895L29.3525 45.7089L29.0379 46.0247L22.2132 52.8755L21.4622 53.6293H20.4004H5.82869H2.42862ZM12.655 5.87168V5.52168H12.305H5.82869H5.47869V5.87168V26.7634V27.6107L6.07665 27.0105L12.553 20.5094L12.655 20.407V20.2624V5.87168ZM5.47869 43.9912V44.8384L6.07665 44.2382L44.0512 6.1187L44.646 5.52168H43.8033H34.884H34.7387L34.6361 5.62467L5.58073 34.7909L5.47869 34.8933V35.0379V43.9912ZM36.9538 48.3107L37.0562 48.4784H37.2526H43.5673H44.1672L43.872 47.9561L38.0314 37.6264L37.8044 37.2248L37.4788 37.5516L33.2769 41.7695L33.083 41.9642L33.2261 42.1988L36.9538 48.3107Z" fill="#FF0000" stroke="white" stroke-width="0.7"/>
</svg>
