<svg width="349" height="589" viewBox="0 0 349 589" fill="none" xmlns="http://www.w3.org/2000/svg">
<g clip-path="url(#clip0)">
<path d="M121.317 150.803L76.8984 224.294L79.4796 232.047V238.453L137.395 282.279L110.347 288.093V290.677L136.75 288.739L110.347 297.784L113.573 301.015L140.622 294.554L120.026 306.129L121.317 309.36L148.365 299.076L151.592 281.04L148.365 272.641L103.302 224.94L109.11 226.232L134.169 197.859L133.524 206.258L149.656 198.505L137.395 156.618L121.317 150.803Z" fill="white"/>
<path d="M121.317 150.803L76.8984 224.294L79.4796 232.047V238.453L137.395 282.279L110.347 288.093V290.677L136.75 288.739L110.347 297.784L113.573 301.015L140.622 294.554L120.026 306.129L121.317 309.36L148.365 299.076L151.592 281.04L148.365 272.641L103.302 224.94L109.11 226.232L134.169 197.859L133.524 206.258L149.656 198.505L137.395 156.618L121.317 150.803Z" stroke="black" stroke-miterlimit="10"/>
<path d="M214.67 136.59L228.168 142.458L255.862 181.761C255.862 181.761 257.798 183.699 258.443 183.699C259.088 183.699 259.088 194.628 259.088 194.628L239.783 262.304L248.817 248.145L251.398 249.437L243.01 265.535L256.507 249.437L259.088 252.667L244.3 269.411L260.379 259.72L261.024 264.242L227.522 281.04L224.35 266.019L236.503 211.426L216.606 183.053L212.089 150.211L214.67 136.59Z" fill="#F9F9F9" stroke="black" stroke-miterlimit="10"/>
<path d="M220.424 276.518L200.474 472.438L173.479 475.669L186.976 329.334L144.494 480.137L116.154 480.783L150.301 313.236L145.784 293.262L147.075 279.102L155.41 264.242L214.67 261.658L220.424 276.518Z" fill="black"/>
<path d="M216.607 277.164L196.656 473.084L169.607 476.315L183.105 329.98L140.623 480.783L112.283 481.429L146.43 313.882L141.913 293.908L143.204 279.748L151.593 264.888L210.799 262.304L216.607 277.164Z" stroke="black" stroke-miterlimit="10"/>
<path d="M119.381 484.66L110.347 500.758L117.445 505.28L125.834 500.758L138.687 530.423L149.657 529.777L143.849 484.66H119.381Z" fill="#FF0000"/>
<path d="M172.188 483.368L168.316 498.227H177.297L181.814 491.767L190.203 524.608L199.183 527.193L201.119 480.137L172.188 483.368Z" fill="#FF0000"/>
<path d="M174.124 484.66L170.252 499.519H179.233L183.75 493.059L192.139 525.901L201.119 528.485L203.055 481.43L174.124 484.66Z" stroke="black" stroke-miterlimit="10"/>
<path d="M122.608 487.244L113.574 503.342L120.672 507.864L129.061 503.342L141.913 533.007L152.883 532.361L147.076 487.244H122.608Z" stroke="black" stroke-miterlimit="10"/>
<path d="M176.651 68.3218L186.976 79.2512L195.365 90.8266L186.976 95.9952L194.075 100.518C194.075 100.518 181.868 106.332 174.124 105.686" stroke="black" stroke-miterlimit="10"/>
<path d="M191.601 102.025L193.43 105.74L191.494 107.624L194.075 114.731L185.686 118.608L160.573 123.13L148.366 116.669L141.913 99.9254" stroke="black" stroke-miterlimit="10"/>
<path d="M150.947 121.192L157.346 139.228" stroke="black" stroke-miterlimit="10"/>
<path d="M181.814 121.838L187.622 134.059" stroke="black" stroke-miterlimit="10"/>
<path d="M152.56 138.905L114.541 147.95L115.186 152.419H124.221L144.171 202.058L133.201 209.165L139.654 243.299L137.718 258.805L143.526 267.15L189.235 273.61L222.037 269.088L227.2 191.129L213.702 130.506L187.944 128.622L193.106 138.259L179.555 147.304L160.25 144.72L152.56 138.905Z" fill="#FF0000"/>
<path d="M153.797 140.843L115.832 149.888L116.477 154.357H125.512L145.462 203.996L134.492 211.103L140.945 245.237L139.009 260.689L144.817 269.088L190.526 275.549L223.328 271.026L228.491 193.067L214.993 132.444L189.235 130.506L194.397 140.197L180.846 149.242L161.541 146.658L153.797 140.843Z" stroke="black" stroke-miterlimit="10"/>
<path d="M178.049 87.3809C179.148 87.3809 180.039 85.79 180.039 83.8275C180.039 81.865 179.148 80.2741 178.049 80.2741C176.95 80.2741 176.06 81.865 176.06 83.8275C176.06 85.79 176.95 87.3809 178.049 87.3809Z" stroke="black" stroke-miterlimit="10"/>
<path d="M166.165 97.718C167.264 97.718 168.155 96.1271 168.155 94.1646C168.155 92.2022 167.264 90.6113 166.165 90.6113C165.066 90.6113 164.175 92.2022 164.175 94.1646C164.175 96.1271 165.066 97.718 166.165 97.718Z" stroke="black" stroke-miterlimit="10"/>
<path d="M133.308 100.033C133.308 100.033 116.692 84.1506 127.769 78.6051C138.847 73.0597 140.46 76.2362 142.02 66.7067C143.579 57.1772 147.559 50.8241 153.097 52.4393C158.636 54.0007 162.616 51.6317 166.541 54.0007C170.467 56.3696 172.887 55.562 176.812 55.562C180.792 55.562 181.544 54.0007 183.158 57.1233C184.717 60.2998 184.717 63.4763 183.964 65.0377C183.158 66.599 170.521 72.952 167.348 74.5672C164.175 76.1285 164.982 74.5672 160.196 76.1285C155.463 77.6899 154.657 75.3209 154.657 80.1126C154.657 84.9043 157.023 84.0967 153.097 85.6581C149.118 87.2194 150.731 84.8505 147.559 88.027C144.386 91.2035 142.826 92.0111 143.579 95.9413C144.386 99.9254 149.925 99.1178 144.386 103.856C138.847 108.594 134.868 107.84 133.308 107.84C131.749 107.84 127.769 107.84 130.942 104.663C134.115 101.594 133.308 100.033 133.308 100.033Z" fill="black"/>
<path d="M132.663 100.033C132.663 100.033 116.047 84.1506 127.124 78.6051C138.202 73.0597 139.815 76.2362 141.375 66.7067C142.934 57.1772 146.914 50.8241 152.452 52.4393C157.991 54.0007 161.971 51.6317 165.896 54.0007C169.822 56.3696 172.242 55.562 176.167 55.562C180.147 55.562 180.899 54.0007 182.513 57.1233C184.072 60.2998 184.072 63.4763 183.319 65.0377C182.513 66.599 169.876 72.952 166.703 74.5672C163.53 76.1285 164.337 74.5672 159.551 76.1285C154.819 77.6899 154.012 75.3209 154.012 80.1126C154.012 84.9043 156.378 84.0967 152.452 85.6581C148.473 87.2194 150.086 84.8505 146.914 88.027C143.741 91.2035 142.181 92.0111 142.934 95.9413C143.741 99.9254 149.28 99.1178 143.741 103.856C138.202 108.594 134.223 107.84 132.663 107.84C131.104 107.84 127.124 107.84 130.297 104.663C133.47 101.594 132.663 100.033 132.663 100.033Z" fill="black"/>
<path d="M132.018 100.033C132.018 100.033 115.401 84.1506 126.479 78.6051C137.557 73.0597 139.17 76.2362 140.729 66.7067C142.289 57.1772 146.268 50.8241 151.807 52.4393C157.346 54.0007 161.325 51.6317 165.251 54.0007C169.176 56.3696 171.596 55.562 175.522 55.562C179.501 55.562 180.254 54.0007 181.867 57.1233C183.427 60.2998 183.427 63.4763 182.674 65.0377C181.867 66.599 169.23 72.952 166.057 74.5672C162.885 76.1285 163.691 74.5672 158.905 76.1285C154.173 77.6899 153.366 75.3209 153.366 80.1126C153.366 84.9043 155.732 84.0967 151.807 85.6581C147.828 87.2194 149.441 84.8505 146.268 88.027C143.095 91.2035 141.536 92.0111 142.289 95.9413C143.095 99.9254 148.634 99.1178 143.095 103.856C137.557 108.594 133.577 107.84 132.018 107.84C130.458 107.84 126.479 107.84 129.652 104.663C132.824 101.594 132.018 100.033 132.018 100.033Z" fill="black"/>
<path d="M131.372 100.033C131.372 100.033 114.756 84.1506 125.833 78.6051C136.911 73.0597 138.524 76.2362 140.084 66.7067C141.643 57.1772 145.623 50.8241 151.161 52.4393C156.7 54.0007 160.68 51.6317 164.605 54.0007C168.531 56.3696 170.951 55.562 174.876 55.562C178.856 55.562 179.608 54.0007 181.222 57.1233C182.781 60.2998 182.781 63.4763 182.028 65.0377C181.222 66.599 168.585 72.952 165.412 74.5672C162.239 76.1285 163.046 74.5672 158.26 76.1285C153.527 77.6899 152.721 75.3209 152.721 80.1126C152.721 84.9043 155.087 84.0967 151.161 85.6581C147.182 87.2194 148.795 84.8505 145.623 88.027C142.45 91.2035 140.89 92.0111 141.643 95.9413C142.45 99.9254 147.989 99.1178 142.45 103.856C136.911 108.594 132.932 107.84 131.372 107.84C129.813 107.84 125.833 107.84 129.006 104.663C132.179 101.594 131.372 100.033 131.372 100.033Z" fill="black"/>
<path d="M128.791 100.679C128.791 100.679 112.175 84.7966 123.252 79.2512C134.33 73.7058 135.943 76.8823 137.503 67.3527C139.062 57.8232 143.041 51.4702 148.58 53.0854C154.119 54.6467 158.098 52.2778 162.024 54.6467C165.95 57.0156 168.37 56.208 172.295 56.208C176.274 56.208 177.027 54.6467 178.641 57.7694C180.2 60.9459 180.2 64.1224 179.447 65.6837C178.641 67.2451 166.003 73.5981 162.831 75.2133C159.658 76.7746 160.465 75.2133 155.679 76.7746C150.946 78.3359 150.14 75.967 150.14 80.7587C150.14 85.5504 152.506 84.7428 148.58 86.3041C144.601 87.8655 146.214 85.4965 143.041 88.673C139.869 91.8495 138.309 92.6571 139.062 96.5874C139.869 100.571 145.408 99.7639 139.869 104.502C134.33 109.24 130.351 108.486 128.791 108.486C127.232 108.486 123.252 108.486 126.425 105.309C129.598 102.24 128.791 100.679 128.791 100.679Z" stroke="black" stroke-miterlimit="10"/>
</g>
<defs>
<clipPath id="clip0">
<rect width="349" height="589" fill="white"/>
</clipPath>
</defs>
</svg>
