<svg width="42" height="42" viewBox="0 0 42 42" fill="none" xmlns="http://www.w3.org/2000/svg">
<g clip-path="url(#clip0)">
<path d="M21.1259 0H21.1154C9.60303 0 0.241211 9.4185 0.241211 21C0.241211 25.5938 1.71321 29.8515 4.21613 33.3086L1.61403 41.1101L9.63957 38.5298C12.9411 40.7295 16.8795 42 21.1259 42C32.6383 42 42.0001 32.5789 42.0001 21C42.0001 9.42113 32.6383 0 21.1259 0Z" fill="black"/>
<path d="M33.2751 29.6545C32.7714 31.0851 30.7722 32.2716 29.1775 32.6181C28.0866 32.8517 26.6616 33.0381 21.8645 31.0379C15.7286 28.4811 11.7772 22.21 11.4692 21.8031C11.1743 21.3962 8.98975 18.4825 8.98975 15.469C8.98975 12.4555 10.5113 10.9881 11.1247 10.3581C11.6284 9.84099 12.461 9.60474 13.2596 9.60474C13.518 9.60474 13.7503 9.61786 13.9591 9.62836C14.5724 9.65461 14.8804 9.69136 15.2849 10.6652C15.7886 11.8859 17.0153 14.8994 17.1614 15.2091C17.3102 15.5189 17.459 15.9389 17.2502 16.3457C17.0544 16.7657 16.8822 16.9521 16.5742 17.3091C16.2662 17.6661 15.9739 17.9391 15.6659 18.3224C15.3841 18.6557 15.0657 19.0127 15.4206 19.6296C15.7756 20.2334 17.0022 22.2467 18.8083 23.8637C21.139 25.9506 23.0286 26.6174 23.7045 26.9009C24.2082 27.1109 24.8085 27.061 25.1765 26.6672C25.6437 26.1606 26.2205 25.3206 26.8077 24.4937C27.2253 23.9005 27.7525 23.827 28.3058 24.037C28.8696 24.2339 31.8527 25.717 32.4661 26.0241C33.0794 26.3339 33.4839 26.4809 33.6327 26.7407C33.7789 27.0006 33.7789 28.2212 33.2751 29.6545Z" fill="white"/>
</g>
<defs>
<clipPath id="clip0">
<rect width="41.7589" height="42" fill="white" transform="translate(0.241211)"/>
</clipPath>
</defs>
</svg>
